<svg xmlns="http://www.w3.org/2000/svg" viewBox="0 0 64 64">
  <defs>
    <linearGradient id="g" x1="0" y1="0" x2="1" y2="1">
      <stop offset="0" stop-color="#ffb338"/>
      <stop offset="1" stop-color="#ff7a3c"/>
    </linearGradient>
  </defs>
  <rect width="64" height="64" rx="14" fill="#160d06"/>
  <!-- sun rays / lion mane -->
  <g fill="url(#g)">
    <circle cx="32" cy="30" r="13"/>
    <g>
      <path d="M32 6l3 8h-6z"/>
      <path d="M32 54l3-8h-6z" transform="rotate(180 32 50)"/>
      <path d="M8 30l8 3v-6z"/>
      <path d="M56 30l-8 3v-6z"/>
      <path d="M15 13l7 5-4 4z"/>
      <path d="M49 13l-7 5 4 4z"/>
      <path d="M15 47l7-5-4-4z"/>
      <path d="M49 47l-7-5 4-4z"/>
    </g>
  </g>
  <!-- lion face suggestion -->
  <g fill="#160d06">
    <circle cx="27" cy="28" r="2"/>
    <circle cx="37" cy="28" r="2"/>
    <path d="M32 32l3 3h-6z"/>
    <path d="M32 36c-3 0-5-1-6-3 2 1 4 1 6 1s4 0 6-1c-1 2-3 3-6 3z"/>
  </g>
</svg>
